<svg width="154" height="24" viewBox="0 0 154 24" fill="none" xmlns="http://www.w3.org/2000/svg">
    <path d="M8.088 18.24C3.72 18.24 1.536 16.832 1.536 14.016V6.624C1.536 3.648 3.72 2.16 8.088 2.16C9.576 2.16 11 2.312 12.36 2.616V4.344C10.824 3.96 9.416 3.768 8.136 3.768C7.512 3.768 6.968 3.808 6.504 3.888C6.04 3.952 5.592 4.072 5.16 4.248C4.232 4.648 3.768 5.432 3.768 6.6V13.896C3.768 15.688 5.256 16.584 8.232 16.584C9.512 16.584 10.92 16.392 12.456 16.008V17.784C11.096 18.088 9.64 18.24 8.088 18.24ZM20.3389 18.24C19.3149 18.24 18.5469 18.2 18.0349 18.12C17.5229 18.056 17.0109 17.904 16.4989 17.664C15.9709 17.424 15.5869 17.04 15.3469 16.512C15.1069 15.968 14.9869 15.24 14.9869 14.328V10.296C14.9869 9.576 15.0749 8.944 15.2509 8.4C15.4269 7.856 15.6589 7.432 15.9469 7.128C16.1869 6.856 16.5469 6.648 17.0269 6.504C17.5229 6.344 18.0269 6.24 18.5389 6.192C19.1149 6.16 19.7149 6.144 20.3389 6.144C21.1709 6.144 21.7949 6.168 22.2109 6.216C22.6429 6.248 23.0989 6.328 23.5789 6.456C24.0749 6.6 24.4589 6.816 24.7309 7.104C25.0029 7.392 25.2349 7.808 25.4269 8.352C25.6029 8.912 25.6909 9.56 25.6909 10.296V14.328C25.6909 15.688 25.3789 16.68 24.7549 17.304C24.4989 17.56 24.1309 17.76 23.6509 17.904C23.1709 18.048 22.6749 18.144 22.1629 18.192C21.5549 18.224 20.9469 18.24 20.3389 18.24ZM20.3389 16.824C21.0109 16.824 21.4989 16.808 21.8029 16.776C22.1069 16.744 22.4029 16.656 22.6909 16.512C22.9789 16.384 23.1789 16.176 23.2909 15.888C23.4189 15.584 23.4829 15.168 23.4829 14.64V9.936C23.4829 9.216 23.3949 8.696 23.2189 8.376C23.0429 8.04 22.7389 7.824 22.3069 7.728C21.8909 7.616 21.2349 7.56 20.3389 7.56C19.4429 7.56 18.7789 7.616 18.3469 7.728C17.9309 7.824 17.6349 8.04 17.4589 8.376C17.2829 8.696 17.1949 9.216 17.1949 9.936V14.64C17.1949 15.168 17.2509 15.584 17.3629 15.888C17.4909 16.176 17.6989 16.384 17.9869 16.512C18.2749 16.656 18.5709 16.744 18.8749 16.776C19.1789 16.808 19.6669 16.824 20.3389 16.824ZM33.9795 18.24C32.9555 18.24 32.1875 18.2 31.6755 18.12C31.1635 18.056 30.6515 17.904 30.1395 17.664C29.6115 17.424 29.2275 17.04 28.9875 16.512C28.7475 15.968 28.6275 15.24 28.6275 14.328V10.296C28.6275 9.576 28.7155 8.944 28.8915 8.4C29.0675 7.856 29.2995 7.432 29.5875 7.128C29.8275 6.856 30.1875 6.648 30.6675 6.504C31.1635 6.344 31.6675 6.24 32.1795 6.192C32.7555 6.16 33.3555 6.144 33.9795 6.144C34.8115 6.144 35.4355 6.168 35.8515 6.216C36.2835 6.248 36.7395 6.328 37.2195 6.456C37.7155 6.6 38.0995 6.816 38.3715 7.104C38.6435 7.392 38.8755 7.808 39.0675 8.352C39.2435 8.912 39.3315 9.56 39.3315 10.296V14.328C39.3315 15.688 39.0195 16.68 38.3955 17.304C38.1395 17.56 37.7715 17.76 37.2915 17.904C36.8115 18.048 36.3155 18.144 35.8035 18.192C35.1955 18.224 34.5875 18.24 33.9795 18.24ZM33.9795 16.824C34.6515 16.824 35.1395 16.808 35.4435 16.776C35.7475 16.744 36.0435 16.656 36.3315 16.512C36.6195 16.384 36.8195 16.176 36.9315 15.888C37.0595 15.584 37.1235 15.168 37.1235 14.64V9.936C37.1235 9.216 37.0355 8.696 36.8595 8.376C36.6835 8.04 36.3795 7.824 35.9475 7.728C35.5315 7.616 34.8755 7.56 33.9795 7.56C33.0835 7.56 32.4195 7.616 31.9875 7.728C31.5715 7.824 31.2755 8.04 31.0995 8.376C30.9235 8.696 30.8355 9.216 30.8355 9.936V14.64C30.8355 15.168 30.8915 15.584 31.0035 15.888C31.1315 16.176 31.3395 16.384 31.6275 16.512C31.9155 16.656 32.2115 16.744 32.5155 16.776C32.8195 16.808 33.3075 16.824 33.9795 16.824ZM42.7001 1.2H44.8601V18H42.7001V1.2ZM60.3536 18.24C55.9856 18.24 53.8016 16.832 53.8016 14.016V6.624C53.8016 3.648 55.9856 2.16 60.3536 2.16C61.8416 2.16 63.2656 2.312 64.6256 2.616V4.344C63.0896 3.96 61.6816 3.768 60.4016 3.768C59.7776 3.768 59.2336 3.808 58.7696 3.888C58.3056 3.952 57.8576 4.072 57.4256 4.248C56.4976 4.648 56.0336 5.432 56.0336 6.6V13.896C56.0336 15.688 57.5216 16.584 60.4976 16.584C61.7776 16.584 63.1856 16.392 64.7216 16.008V17.784C63.3616 18.088 61.9056 18.24 60.3536 18.24ZM72.6045 18.24C71.5805 18.24 70.8125 18.2 70.3005 18.12C69.7885 18.056 69.2765 17.904 68.7645 17.664C68.2365 17.424 67.8525 17.04 67.6125 16.512C67.3725 15.968 67.2525 15.24 67.2525 14.328V10.296C67.2525 9.576 67.3405 8.944 67.5165 8.4C67.6925 7.856 67.9245 7.432 68.2125 7.128C68.4525 6.856 68.8125 6.648 69.2925 6.504C69.7885 6.344 70.2925 6.24 70.8045 6.192C71.3805 6.16 71.9805 6.144 72.6045 6.144C73.4365 6.144 74.0605 6.168 74.4765 6.216C74.9085 6.248 75.3645 6.328 75.8445 6.456C76.3405 6.6 76.7245 6.816 76.9965 7.104C77.2685 7.392 77.5005 7.808 77.6925 8.352C77.8685 8.912 77.9565 9.56 77.9565 10.296V14.328C77.9565 15.688 77.6445 16.68 77.0205 17.304C76.7645 17.56 76.3965 17.76 75.9165 17.904C75.4365 18.048 74.9405 18.144 74.4285 18.192C73.8205 18.224 73.2125 18.24 72.6045 18.24ZM72.6045 16.824C73.2765 16.824 73.7645 16.808 74.0685 16.776C74.3725 16.744 74.6685 16.656 74.9565 16.512C75.2445 16.384 75.4445 16.176 75.5565 15.888C75.6845 15.584 75.7485 15.168 75.7485 14.64V9.936C75.7485 9.216 75.6605 8.696 75.4845 8.376C75.3085 8.04 75.0045 7.824 74.5725 7.728C74.1565 7.616 73.5005 7.56 72.6045 7.56C71.7085 7.56 71.0445 7.616 70.6125 7.728C70.1965 7.824 69.9005 8.04 69.7245 8.376C69.5485 8.696 69.4605 9.216 69.4605 9.936V14.64C69.4605 15.168 69.5165 15.584 69.6285 15.888C69.7565 16.176 69.9645 16.384 70.2525 16.512C70.5405 16.656 70.8365 16.744 71.1405 16.776C71.4445 16.808 71.9325 16.824 72.6045 16.824ZM81.3251 6.384H83.4851V7.8C83.7091 6.696 85.0131 6.144 87.3971 6.144C89.3331 6.144 90.5411 6.672 91.0211 7.728C91.1651 7.216 91.5971 6.824 92.3171 6.552C93.0531 6.28 93.9491 6.144 95.0051 6.144C96.4451 6.144 97.4611 6.416 98.0531 6.96C98.6451 7.488 98.9411 8.328 98.9411 9.48V18H96.7811V9.624C96.7811 9.32 96.7571 9.072 96.7091 8.88C96.6611 8.688 96.5651 8.496 96.4211 8.304C96.1011 7.904 95.3891 7.704 94.2851 7.704C93.4371 7.704 92.8051 7.76 92.3891 7.872C91.9731 7.984 91.6851 8.176 91.5251 8.448C91.3811 8.72 91.3091 9.112 91.3091 9.624V18H89.1491V9.624C89.1491 9.32 89.1251 9.072 89.0771 8.88C89.0291 8.688 88.9331 8.496 88.7891 8.304C88.4691 7.904 87.7651 7.704 86.6771 7.704C85.7971 7.704 85.1331 7.76 84.6851 7.872C84.2371 7.984 83.9251 8.176 83.7491 8.448C83.5731 8.704 83.4851 9.096 83.4851 9.624V18H81.3251V6.384ZM102.677 6.384H104.813V7.632H104.837C105.013 6.64 106.333 6.144 108.797 6.144C110.269 6.144 111.381 6.456 112.133 7.08C112.885 7.688 113.261 8.472 113.261 9.432V14.208C113.261 14.896 113.157 15.496 112.949 16.008C112.757 16.52 112.501 16.92 112.181 17.208C111.893 17.48 111.493 17.696 110.981 17.856C110.485 18.016 109.989 18.12 109.493 18.168C109.045 18.216 108.501 18.24 107.861 18.24C107.157 18.24 106.509 18.16 105.917 18C105.341 17.824 104.981 17.576 104.837 17.256V22.992H102.677V6.384ZM107.909 16.776C108.741 16.776 109.373 16.72 109.805 16.608C110.253 16.48 110.573 16.256 110.765 15.936C110.957 15.616 111.053 15.128 111.053 14.472V10.2C111.053 9.48 110.957 8.944 110.765 8.592C110.573 8.24 110.253 8.008 109.805 7.896C109.373 7.768 108.733 7.704 107.885 7.704C107.037 7.704 106.405 7.768 105.989 7.896C105.573 8.008 105.277 8.24 105.101 8.592C104.925 8.928 104.837 9.464 104.837 10.2V14.472C104.837 15.128 104.925 15.616 105.101 15.936C105.293 16.256 105.605 16.48 106.037 16.608C106.469 16.72 107.093 16.776 107.909 16.776ZM120.151 18.24C119.047 18.24 118.191 18.136 117.583 17.928C116.991 17.72 116.559 17.352 116.287 16.824C116.031 16.296 115.903 15.536 115.903 14.544C115.903 13.664 116.023 12.984 116.263 12.504C116.519 12.008 116.943 11.656 117.535 11.448C118.143 11.24 118.999 11.136 120.103 11.136H123.583V9.288C123.583 8.856 123.495 8.528 123.319 8.304C123.159 8.064 122.879 7.896 122.479 7.8C122.095 7.704 121.527 7.656 120.775 7.656C119.575 7.656 118.247 7.752 116.791 7.944V6.36C118.375 6.216 119.807 6.144 121.087 6.144C122.431 6.144 123.423 6.248 124.063 6.456C124.703 6.648 125.143 6.992 125.383 7.488C125.623 7.984 125.743 8.752 125.743 9.792V18H123.655V16.896C123.479 17.792 122.311 18.24 120.151 18.24ZM120.511 16.824C121.295 16.824 121.959 16.768 122.503 16.656C123.223 16.512 123.583 16.176 123.583 15.648V12.48H120.247C119.559 12.48 119.063 12.536 118.759 12.648C118.455 12.744 118.255 12.936 118.159 13.224C118.063 13.512 118.015 13.976 118.015 14.616C118.015 15.192 118.071 15.64 118.183 15.96C118.295 16.264 118.495 16.488 118.783 16.632C119.071 16.76 119.503 16.824 120.079 16.824H120.511ZM129.489 6.384H131.649V7.8C131.873 6.696 133.145 6.144 135.465 6.144C136.953 6.144 137.993 6.416 138.585 6.96C139.193 7.488 139.497 8.328 139.497 9.48V18H137.337V9.6C137.337 9.296 137.313 9.048 137.265 8.856C137.217 8.664 137.121 8.472 136.977 8.28C136.657 7.88 135.945 7.68 134.841 7.68C133.993 7.68 133.337 7.744 132.873 7.872C132.425 7.984 132.105 8.176 131.913 8.448C131.737 8.72 131.649 9.104 131.649 9.6V18H129.489V6.384ZM146.007 18.168L141.519 6.384H143.871L147.111 15.864H147.159L150.087 6.384H152.271L146.439 22.992H144.183L146.007 18.168Z" fill="#2A2E5B"/>
    <path d="M12.36 2.616H13.36C13.36 2.14777 13.0351 1.74223 12.5781 1.64008L12.36 2.616ZM12.36 4.344L12.1175 5.31414C12.4162 5.38883 12.7327 5.32171 12.9754 5.13221C13.2181 4.9427 13.36 4.65194 13.36 4.344H12.36ZM6.504 3.888L6.64064 4.87862C6.65176 4.87709 6.66285 4.87537 6.67391 4.87346L6.504 3.888ZM5.16 4.248L4.7827 3.32191C4.7765 3.32443 4.77032 3.32702 4.76417 3.32968L5.16 4.248ZM12.456 16.008H13.456C13.456 15.7001 13.3141 15.4093 13.0714 15.2198C12.8287 15.0303 12.5122 14.9632 12.2135 15.0379L12.456 16.008ZM12.456 17.784L12.6741 18.7599C13.1311 18.6578 13.456 18.2522 13.456 17.784H12.456ZM8.088 17.24C5.9794 17.24 4.57025 16.8943 3.71585 16.3435C2.93682 15.8413 2.536 15.1181 2.536 14.016H0.536C0.536 15.7299 1.22718 17.1187 2.63215 18.0245C3.96175 18.8817 5.8286 19.24 8.088 19.24V17.24ZM2.536 14.016V6.624H0.536V14.016H2.536ZM2.536 6.624C2.536 5.41811 2.95633 4.63434 3.73706 4.10242C4.58655 3.52364 5.98634 3.16 8.088 3.16V1.16C5.82166 1.16 3.94545 1.54036 2.61095 2.44958C1.20767 3.40566 0.536 4.85389 0.536 6.624H2.536ZM8.088 3.16C9.50755 3.16 10.8581 3.30496 12.1419 3.59192L12.5781 1.64008C11.1419 1.31903 9.64445 1.16 8.088 1.16V3.16ZM11.36 2.616V4.344H13.36V2.616H11.36ZM12.6025 3.37386C11.0051 2.9745 9.51435 2.768 8.136 2.768V4.768C9.31765 4.768 10.6429 4.9455 12.1175 5.31414L12.6025 3.37386ZM8.136 2.768C7.47219 2.768 6.86889 2.81033 6.33409 2.90254L6.67391 4.87346C7.06711 4.80567 7.55181 4.768 8.136 4.768V2.768ZM6.36737 2.89738C5.82111 2.97272 5.29224 3.11432 4.7827 3.32191L5.5373 5.17409C5.89176 5.02968 6.25889 4.93128 6.64064 4.87862L6.36737 2.89738ZM4.76417 3.32968C4.12816 3.60382 3.6069 4.0328 3.25542 4.62668C2.90981 5.21064 2.768 5.88644 2.768 6.6H4.768C4.768 6.14556 4.85819 5.84536 4.97658 5.64532C5.0891 5.4552 5.26384 5.29218 5.55583 5.16632L4.76417 3.32968ZM2.768 6.6V13.896H4.768V6.6H2.768ZM2.768 13.896C2.768 15.1291 3.31223 16.1329 4.36815 16.7687C5.3429 17.3556 6.67627 17.584 8.232 17.584V15.584C6.81173 15.584 5.9131 15.3644 5.39985 15.0553C4.96777 14.7951 4.768 14.4549 4.768 13.896H2.768ZM8.232 17.584C9.61035 17.584 11.1011 17.3775 12.6985 16.9781L12.2135 15.0379C10.7389 15.4065 9.41365 15.584 8.232 15.584V17.584ZM11.456 16.008V17.784H13.456V16.008H11.456ZM12.2379 16.8081C10.957 17.0944 9.5748 17.24 8.088 17.24V19.24C9.7052 19.24 11.235 19.0816 12.6741 18.7599L12.2379 16.8081ZM18.0349 18.12L18.1893 17.132C18.1792 17.1304 18.169 17.129 18.1589 17.1277L18.0349 18.12ZM16.4989 17.664L16.9233 16.7585L16.9127 16.7536L16.4989 17.664ZM15.3469 16.512L14.4319 16.9157L14.4365 16.9258L15.3469 16.512ZM15.2509 8.4L16.2023 8.70782L16.2023 8.70782L15.2509 8.4ZM15.9469 7.128L16.6728 7.81574C16.6809 7.80718 16.6889 7.79847 16.6967 7.78962L15.9469 7.128ZM17.0269 6.504L17.3142 7.46183C17.3208 7.45985 17.3273 7.45781 17.3339 7.45571L17.0269 6.504ZM18.5389 6.192L18.4834 5.19354C18.4708 5.19424 18.4581 5.19518 18.4455 5.19637L18.5389 6.192ZM22.2109 6.216L22.0963 7.20941C22.1098 7.21097 22.1234 7.21226 22.137 7.21327L22.2109 6.216ZM23.5789 6.456L23.8577 5.49565C23.8507 5.49361 23.8436 5.49165 23.8365 5.48976L23.5789 6.456ZM25.4269 8.352L26.3809 8.05217C26.3774 8.04111 26.3737 8.03011 26.3699 8.01918L25.4269 8.352ZM24.7549 17.304L24.0478 16.5969L24.0478 16.5969L24.7549 17.304ZM23.6509 17.904L23.3635 16.9462L23.6509 17.904ZM22.1629 18.192L22.2154 19.1906C22.229 19.1899 22.2426 19.1889 22.2562 19.1876L22.1629 18.192ZM22.6909 16.512L22.2847 15.5982C22.2709 15.6043 22.2572 15.6108 22.2437 15.6176L22.6909 16.512ZM23.2909 15.888L22.3692 15.4999C22.3657 15.5084 22.3622 15.517 22.3589 15.5256L23.2909 15.888ZM23.2189 8.376L22.333 8.84001C22.3362 8.84601 22.3394 8.85198 22.3427 8.85792L23.2189 8.376ZM22.3069 7.728L22.0469 8.69361C22.0612 8.69746 22.0755 8.70098 22.0899 8.70419L22.3069 7.728ZM18.3469 7.728L18.5717 8.70239C18.5805 8.70038 18.5892 8.69824 18.5978 8.696L18.3469 7.728ZM17.4589 8.376L18.3351 8.85792C18.3384 8.85198 18.3416 8.84601 18.3447 8.84001L17.4589 8.376ZM17.3629 15.888L16.4245 16.2337C16.432 16.2541 16.4402 16.2743 16.4491 16.2941L17.3629 15.888ZM17.9869 16.512L18.4341 15.6176C18.4205 15.6108 18.4069 15.6043 18.393 15.5982L17.9869 16.512ZM18.8749 16.776L18.9796 15.7815L18.9796 15.7815L18.8749 16.776ZM20.3389 17.24C19.3269 17.24 18.6221 17.1996 18.1893 17.132L17.8805 19.108C18.4717 19.2004 19.3028 19.24 20.3389 19.24V17.24ZM18.1589 17.1277C17.7605 17.0779 17.3494 16.9583 16.9233 16.7585L16.0744 18.5695C16.6723 18.8497 17.2853 19.0341 17.9108 19.1123L18.1589 17.1277ZM16.9127 16.7536C16.6048 16.6137 16.3972 16.4061 16.2572 16.0982L14.4365 16.9258C14.7766 17.6739 15.337 18.2343 16.0851 18.5744L16.9127 16.7536ZM16.2618 16.1084C16.0997 15.741 15.9869 15.1678 15.9869 14.328H13.9869C13.9869 15.3122 14.114 16.195 14.432 16.9156L16.2618 16.1084ZM15.9869 14.328V10.296H13.9869V14.328H15.9869ZM15.9869 10.296C15.9869 9.65468 16.0656 9.13047 16.2023 8.70782L14.2994 8.09218C14.0842 8.75753 13.9869 9.49732 13.9869 10.296H15.9869ZM16.2023 8.70782C16.3483 8.2567 16.5177 7.97948 16.6728 7.81574L15.2209 6.44026C14.8 6.88452 14.5055 7.4553 14.2994 8.09218L16.2023 8.70782ZM16.6967 7.78962C16.7746 7.7013 16.9475 7.57186 17.3142 7.46183L16.7395 5.54617C16.1463 5.72414 15.5991 6.0107 15.197 6.46638L16.6967 7.78962ZM17.3339 7.45571C17.7614 7.31779 18.1938 7.22874 18.6322 7.18763L18.4455 5.19637C17.8599 5.25126 17.2843 5.3702 16.7199 5.55229L17.3339 7.45571ZM18.5943 7.19046C19.1505 7.15957 19.7319 7.144 20.3389 7.144V5.144C19.6979 5.144 19.0793 5.16043 18.4834 5.19354L18.5943 7.19046ZM20.3389 7.144C21.1621 7.144 21.7393 7.16823 22.0963 7.20941L22.3255 5.22259C21.8504 5.16777 21.1796 5.144 20.3389 5.144V7.144ZM22.137 7.21327C22.4987 7.24006 22.8928 7.30799 23.3212 7.42223L23.8365 5.48976C23.3049 5.348 22.7871 5.25594 22.2847 5.21873L22.137 7.21327ZM23.3001 7.41635C23.6757 7.52539 23.886 7.66582 24.0039 7.79062L25.4579 6.41738C25.0318 5.96618 24.4741 5.67461 23.8577 5.49565L23.3001 7.41635ZM24.0039 7.79062C24.1466 7.94172 24.3189 8.21731 24.4839 8.68482L26.3699 8.01918C26.1509 7.39869 25.8592 6.84228 25.4579 6.41738L24.0039 7.79062ZM24.4729 8.65183C24.6118 9.09382 24.6909 9.63708 24.6909 10.296H26.6909C26.6909 9.48292 26.594 8.73018 26.3809 8.05217L24.4729 8.65183ZM24.6909 10.296V14.328H26.6909V10.296H24.6909ZM24.6909 14.328C24.6909 15.5631 24.4041 16.2406 24.0478 16.5969L25.462 18.0111C26.3537 17.1194 26.6909 15.8129 26.6909 14.328H24.6909ZM24.0478 16.5969C23.9451 16.6996 23.7428 16.8324 23.3635 16.9462L23.9382 18.8618C24.519 18.6876 25.0527 18.4204 25.462 18.0111L24.0478 16.5969ZM23.3635 16.9462C22.9484 17.0707 22.5175 17.1544 22.0695 17.1964L22.2562 19.1876C22.8323 19.1336 23.3933 19.0253 23.9382 18.8618L23.3635 16.9462ZM22.1103 17.1934C21.5198 17.2245 20.9293 17.24 20.3389 17.24V19.24C20.9644 19.24 21.59 19.2235 22.2154 19.1906L22.1103 17.1934ZM20.3389 17.824C21.0147 17.824 21.5476 17.8084 21.9076 17.7705L21.6982 15.7815C21.4502 15.8076 21.0071 15.824 20.3389 15.824V17.824ZM21.9076 17.7705C22.3371 17.7253 22.7486 17.6012 23.1381 17.4064L22.2437 15.6176C22.0571 15.7108 21.8767 15.7627 21.6982 15.7815L21.9076 17.7705ZM23.097 17.4258C23.6208 17.193 24.0131 16.7899 24.2229 16.2504L22.3589 15.5256C22.3473 15.5553 22.3382 15.5647 22.336 15.5669C22.3336 15.5694 22.3215 15.5818 22.2847 15.5982L23.097 17.4258ZM24.2125 16.2761C24.414 15.7975 24.4829 15.2306 24.4829 14.64H22.4829C22.4829 15.1054 22.4238 15.3705 22.3692 15.4999L24.2125 16.2761ZM24.4829 14.64V9.936H22.4829V14.64H24.4829ZM24.4829 9.936C24.4829 9.18149 24.3988 8.44619 24.0951 7.89408L22.3427 8.85792C22.391 8.94581 22.4829 9.25051 22.4829 9.936H24.4829ZM24.1047 7.91199C23.7686 7.27037 23.1901 6.89988 22.5238 6.75181L22.0899 8.70419C22.2877 8.74812 22.3171 8.80963 22.333 8.84001L24.1047 7.91199ZM22.5668 6.76238C22.0165 6.6142 21.2495 6.56 20.3389 6.56V8.56C21.2203 8.56 21.7653 8.6178 22.0469 8.69361L22.5668 6.76238ZM20.3389 6.56C19.4252 6.56 18.6561 6.61476 18.0959 6.76L18.5978 8.696C18.9016 8.61723 19.4606 8.56 20.3389 8.56V6.56ZM18.122 6.75361C17.4617 6.90598 16.9023 7.28338 16.573 7.91199L18.3447 8.84001C18.3674 8.79662 18.4 8.74202 18.5717 8.70239L18.122 6.75361ZM16.5827 7.89408C16.279 8.44619 16.1949 9.18149 16.1949 9.936H18.1949C18.1949 9.25051 18.2868 8.94581 18.3351 8.85792L16.5827 7.89408ZM16.1949 9.936V14.64H18.1949V9.936H16.1949ZM16.1949 14.64C16.1949 15.2213 16.2542 15.7713 16.4245 16.2337L18.3012 15.5423C18.2476 15.3967 18.1949 15.1147 18.1949 14.64H16.1949ZM16.4491 16.2941C16.6776 16.8084 17.0665 17.1973 17.5807 17.4258L18.393 15.5982C18.3312 15.5707 18.3041 15.5436 18.2767 15.4819L16.4491 16.2941ZM17.5397 17.4064C17.9291 17.6012 18.3407 17.7253 18.7702 17.7705L18.9796 15.7815C18.8011 15.7627 18.6206 15.7108 18.4341 15.6176L17.5397 17.4064ZM18.7702 17.7705C19.1302 17.8084 19.6631 17.824 20.3389 17.824V15.824C19.6707 15.824 19.2276 15.8076 18.9796 15.7815L18.7702 17.7705ZM31.6755 18.12L31.8299 17.132C31.8198 17.1304 31.8097 17.129 31.7995 17.1277L31.6755 18.12ZM30.1395 17.664L30.564 16.7585L30.5533 16.7536L30.1395 17.664ZM28.9875 16.512L28.0725 16.9157L28.0771 16.9258L28.9875 16.512ZM28.8915 8.4L29.8429 8.70782L29.8429 8.70782L28.8915 8.4ZM29.5875 7.128L30.3135 7.81574C30.3216 7.80718 30.3295 7.79847 30.3373 7.78962L29.5875 7.128ZM30.6675 6.504L30.9548 7.46183C30.9614 7.45985 30.968 7.45781 30.9745 7.45571L30.6675 6.504ZM32.1795 6.192L32.124 5.19354C32.1114 5.19424 32.0988 5.19518 32.0862 5.19637L32.1795 6.192ZM35.8515 6.216L35.7369 7.20941C35.7504 7.21097 35.764 7.21226 35.7776 7.21327L35.8515 6.216ZM37.2195 6.456L37.4983 5.49565C37.4913 5.49361 37.4842 5.49165 37.4772 5.48976L37.2195 6.456ZM39.0675 8.352L40.0215 8.05217C40.018 8.04111 40.0143 8.03011 40.0105 8.01918L39.0675 8.352ZM38.3955 17.304L37.6884 16.5969L37.6884 16.5969L38.3955 17.304ZM37.2915 17.904L37.0042 16.9462L37.2915 17.904ZM35.8035 18.192L35.8561 19.1906C35.8697 19.1899 35.8833 19.1889 35.8968 19.1876L35.8035 18.192ZM36.3315 16.512L35.9254 15.5982C35.9115 15.6043 35.8978 15.6108 35.8843 15.6176L36.3315 16.512ZM36.9315 15.888L36.0099 15.4999C36.0063 15.5084 36.0028 15.517 35.9995 15.5256L36.9315 15.888ZM36.8595 8.376L35.9737 8.84001C35.9768 8.84601 35.98 8.85198 35.9833 8.85792L36.8595 8.376ZM35.9475 7.728L35.6875 8.69361C35.7018 8.69746 35.7161 8.70098 35.7306 8.70419L35.9475 7.728ZM31.9875 7.728L32.2124 8.70239C32.2211 8.70038 32.2298 8.69824 32.2385 8.696L31.9875 7.728ZM31.0995 8.376L31.9757 8.85792C31.979 8.85198 31.9822 8.84601 31.9853 8.84001L31.0995 8.376ZM31.0035 15.888L30.0652 16.2337C30.0727 16.2541 30.0809 16.2743 30.0897 16.2941L31.0035 15.888ZM31.6275 16.512L32.0747 15.6176C32.0612 15.6108 32.0475 15.6043 32.0336 15.5982L31.6275 16.512ZM32.5155 16.776L32.6202 15.7815L32.6202 15.7815L32.5155 16.776ZM33.9795 17.24C32.9676 17.24 32.2627 17.1996 31.8299 17.132L31.5211 19.108C32.1123 19.2004 32.9434 19.24 33.9795 19.24V17.24ZM31.7995 17.1277C31.4011 17.0779 30.99 16.9583 30.5639 16.7585L29.7151 18.5695C30.313 18.8497 30.9259 19.0341 31.5515 19.1123L31.7995 17.1277ZM30.5533 16.7536C30.2454 16.6137 30.0378 16.4061 29.8979 16.0982L28.0771 16.9258C28.4172 17.6739 28.9776 18.2343 29.7257 18.5744L30.5533 16.7536ZM29.9024 16.1084C29.7404 15.741 29.6275 15.1678 29.6275 14.328H27.6275C27.6275 15.3122 27.7546 16.195 28.0726 16.9156L29.9024 16.1084ZM29.6275 14.328V10.296H27.6275V14.328H29.6275ZM29.6275 10.296C29.6275 9.65468 29.7062 9.13047 29.8429 8.70782L27.9401 8.09218C27.7248 8.75753 27.6275 9.49732 27.6275 10.296H29.6275ZM29.8429 8.70782C29.9889 8.2567 30.1583 7.97948 30.3135 7.81574L28.8615 6.44026C28.4407 6.88452 28.1461 7.4553 27.9401 8.09218L29.8429 8.70782ZM30.3373 7.78962C30.4153 7.7013 30.5881 7.57186 30.9548 7.46183L30.3802 5.54617C29.7869 5.72414 29.2397 6.0107 28.8377 6.46638L30.3373 7.78962ZM30.9745 7.45571C31.402 7.31779 31.8344 7.22874 32.2728 7.18763L32.0862 5.19637C31.5006 5.25126 30.925 5.3702 30.3605 5.55229L30.9745 7.45571ZM32.235 7.19046C32.7911 7.15957 33.3725 7.144 33.9795 7.144V5.144C33.3385 5.144 32.7199 5.16043 32.124 5.19354L32.235 7.19046ZM33.9795 7.144C34.8028 7.144 35.38 7.16823 35.7369 7.20941L35.9661 5.22259C35.491 5.16777 34.8202 5.144 33.9795 5.144V7.144ZM35.7776 7.21327C36.1393 7.24006 36.5334 7.30799 36.9618 7.42223L37.4772 5.48976C36.9456 5.348 36.4277 5.25594 35.9254 5.21873L35.7776 7.21327ZM36.9407 7.41635C37.3163 7.52539 37.5266 7.66582 37.6445 7.79062L39.0985 6.41738C38.6724 5.96618 38.1147 5.67461 37.4983 5.49565L36.9407 7.41635ZM37.6445 7.79062C37.7872 7.94172 37.9595 8.21731 38.1245 8.68482L40.0105 8.01918C39.7915 7.39869 39.4998 6.84228 39.0985 6.41738L37.6445 7.79062ZM38.1135 8.65183C38.2524 9.09382 38.3315 9.63708 38.3315 10.296H40.3315C40.3315 9.48292 40.2346 8.73018 40.0215 8.05217L38.1135 8.65183ZM38.3315 10.296V14.328H40.3315V10.296H38.3315ZM38.3315 14.328C38.3315 15.5631 38.0447 16.2406 37.6884 16.5969L39.1026 18.0111C39.9943 17.1194 40.3315 15.8129 40.3315 14.328H38.3315ZM37.6884 16.5969C37.5857 16.6996 37.3834 16.8324 37.0042 16.9462L37.5788 18.8618C38.1596 18.6876 38.6933 18.4204 39.1026 18.0111L37.6884 16.5969ZM37.0042 16.9462C36.589 17.0707 36.1581 17.1544 35.7102 17.1964L35.8968 19.1876C36.4729 19.1336 37.034 19.0253 37.5788 18.8618L37.0042 16.9462ZM35.7509 17.1934C35.1604 17.2245 34.5699 17.24 33.9795 17.24V19.24C34.6051 19.24 35.2306 19.2235 35.8561 19.1906L35.7509 17.1934ZM33.9795 17.824C34.6553 17.824 35.1882 17.8084 35.5482 17.7705L35.3388 15.7815C35.0908 15.8076 34.6477 15.824 33.9795 15.824V17.824ZM35.5482 17.7705C35.9777 17.7253 36.3892 17.6012 36.7787 17.4064L35.8843 15.6176C35.6978 15.7108 35.5173 15.7627 35.3388 15.7815L35.5482 17.7705ZM36.7376 17.4258C37.2614 17.193 37.6537 16.7899 37.8635 16.2504L35.9995 15.5256C35.9879 15.5553 35.9788 15.5647 35.9767 15.5669C35.9743 15.5694 35.9621 15.5818 35.9254 15.5982L36.7376 17.4258ZM37.8531 16.2761C38.0546 15.7975 38.1235 15.2306 38.1235 14.64H36.1235C36.1235 15.1054 36.0644 15.3705 36.0099 15.4999L37.8531 16.2761ZM38.1235 14.64V9.936H36.1235V14.64H38.1235ZM38.1235 9.936C38.1235 9.18149 38.0394 8.44619 37.7357 7.89408L35.9833 8.85792C36.0316 8.94581 36.1235 9.25051 36.1235 9.936H38.1235ZM37.7453 7.91199C37.4092 7.27037 36.8307 6.89988 36.1644 6.75181L35.7306 8.70419C35.9283 8.74812 35.9578 8.80963 35.9737 8.84001L37.7453 7.91199ZM36.2075 6.76238C35.6571 6.6142 34.8901 6.56 33.9795 6.56V8.56C34.8609 8.56 35.4059 8.6178 35.6875 8.69361L36.2075 6.76238ZM33.9795 6.56C33.0658 6.56 32.2967 6.61476 31.7365 6.76L32.2385 8.696C32.5423 8.61723 33.1012 8.56 33.9795 8.56V6.56ZM31.7626 6.75361C31.1024 6.90598 30.5429 7.28338 30.2137 7.91199L31.9853 8.84001C32.0081 8.79662 32.0406 8.74202 32.2124 8.70239L31.7626 6.75361ZM30.2233 7.89408C29.9196 8.44619 29.8355 9.18149 29.8355 9.936H31.8355C31.8355 9.25051 31.9274 8.94581 31.9757 8.85792L30.2233 7.89408ZM29.8355 9.936V14.64H31.8355V9.936H29.8355ZM29.8355 14.64C29.8355 15.2213 29.8948 15.7713 30.0652 16.2337L31.9418 15.5423C31.8882 15.3967 31.8355 15.1147 31.8355 14.64H29.8355ZM30.0897 16.2941C30.3182 16.8084 30.7071 17.1973 31.2214 17.4258L32.0336 15.5982C31.9719 15.5707 31.9448 15.5436 31.9173 15.4819L30.0897 16.2941ZM31.1803 17.4064C31.5698 17.6012 31.9813 17.7253 32.4108 17.7705L32.6202 15.7815C32.4417 15.7627 32.2612 15.7108 32.0747 15.6176L31.1803 17.4064ZM32.4108 17.7705C32.7708 17.8084 33.3037 17.824 33.9795 17.824V15.824C33.3113 15.824 32.8682 15.8076 32.6202 15.7815L32.4108 17.7705ZM42.7001 1.2V0.199999C42.1478 0.199999 41.7001 0.647714 41.7001 1.2H42.7001ZM44.8601 1.2H45.8601C45.8601 0.647714 45.4124 0.199999 44.8601 0.199999V1.2ZM44.8601 18V19C45.4124 19 45.8601 18.5523 45.8601 18H44.8601ZM42.7001 18H41.7001C41.7001 18.5523 42.1478 19 42.7001 19V18ZM42.7001 2.2H44.8601V0.199999H42.7001V2.2ZM43.8601 1.2V18H45.8601V1.2H43.8601ZM44.8601 17H42.7001V19H44.8601V17ZM43.7001 18V1.2H41.7001V18H43.7001ZM64.6256 2.616H65.6256C65.6256 2.14777 65.3007 1.74223 64.8438 1.64008L64.6256 2.616ZM64.6256 4.344L64.3831 5.31414C64.6818 5.38883 64.9983 5.32171 65.241 5.13221C65.4838 4.9427 65.6256 4.65194 65.6256 4.344H64.6256ZM58.7696 3.888L58.9063 4.87862C58.9174 4.87709 58.9285 4.87537 58.9395 4.87346L58.7696 3.888ZM57.4256 4.248L57.0483 3.32191C57.0421 3.32443 57.0359 3.32702 57.0298 3.32968L57.4256 4.248ZM64.7216 16.008H65.7216C65.7216 15.7001 65.5798 15.4093 65.337 15.2198C65.0943 15.0303 64.7778 14.9632 64.4791 15.0379L64.7216 16.008ZM64.7216 17.784L64.9398 18.7599C65.3967 18.6578 65.7216 18.2522 65.7216 17.784H64.7216ZM60.3536 17.24C58.245 17.24 56.8359 16.8943 55.9815 16.3435C55.2024 15.8413 54.8016 15.1181 54.8016 14.016H52.8016C52.8016 15.7299 53.4928 17.1187 54.8978 18.0245C56.2274 18.8817 58.0942 19.24 60.3536 19.24V17.24ZM54.8016 14.016V6.624H52.8016V14.016H54.8016ZM54.8016 6.624C54.8016 5.41811 55.222 4.63434 56.0027 4.10242C56.8522 3.52364 58.252 3.16 60.3536 3.16V1.16C58.0873 1.16 56.2111 1.54036 54.8766 2.44958C53.4733 3.40566 52.8016 4.85389 52.8016 6.624H54.8016ZM60.3536 3.16C61.7732 3.16 63.1238 3.30496 64.4075 3.59192L64.8438 1.64008C63.4075 1.31903 61.9101 1.16 60.3536 1.16V3.16ZM63.6256 2.616V4.344H65.6256V2.616H63.6256ZM64.8682 3.37386C63.2707 2.9745 61.78 2.768 60.4016 2.768V4.768C61.5833 4.768 62.9085 4.9455 64.3831 5.31414L64.8682 3.37386ZM60.4016 2.768C59.7378 2.768 59.1345 2.81033 58.5997 2.90254L58.9395 4.87346C59.3327 4.80567 59.8174 4.768 60.4016 4.768V2.768ZM58.633 2.89738C58.0867 2.97272 57.5579 3.11432 57.0483 3.32191L57.8029 5.17409C58.1574 5.02968 58.5245 4.93128 58.9063 4.87862L58.633 2.89738ZM57.0298 3.32968C56.3938 3.60382 55.8725 4.0328 55.521 4.62668C55.1754 5.21064 55.0336 5.88644 55.0336 6.6H57.0336C57.0336 6.14556 57.1238 5.84536 57.2422 5.64532C57.3547 5.4552 57.5295 5.29218 57.8215 5.16632L57.0298 3.32968ZM55.0336 6.6V13.896H57.0336V6.6H55.0336ZM55.0336 13.896C55.0336 15.1291 55.5779 16.1329 56.6338 16.7687C57.6085 17.3556 58.9419 17.584 60.4976 17.584V15.584C59.0774 15.584 58.1787 15.3644 57.6655 15.0553C57.2334 14.7951 57.0336 14.4549 57.0336 13.896H55.0336ZM60.4976 17.584C61.876 17.584 63.3667 17.3775 64.9642 16.9781L64.4791 15.0379C63.0045 15.4065 61.6793 15.584 60.4976 15.584V17.584ZM63.7216 16.008V17.784H65.7216V16.008H63.7216ZM64.5035 16.8081C63.2227 17.0944 61.8404 17.24 60.3536 17.24V19.24C61.9708 19.24 63.5006 19.0816 64.9398 18.7599L64.5035 16.8081ZM70.3005 18.12L70.4549 17.132C70.4448 17.1304 70.4347 17.129 70.4245 17.1277L70.3005 18.12ZM68.7645 17.664L69.189 16.7585L69.1783 16.7536L68.7645 17.664ZM67.6125 16.512L66.6975 16.9157L66.7021 16.9258L67.6125 16.512ZM67.5165 8.4L68.4679 8.70782L68.4679 8.70782L67.5165 8.4ZM68.2125 7.128L68.9385 7.81574C68.9466 7.80718 68.9545 7.79847 68.9623 7.78962L68.2125 7.128ZM69.2925 6.504L69.5798 7.46183C69.5864 7.45985 69.593 7.45781 69.5995 7.45571L69.2925 6.504ZM70.8045 6.192L70.749 5.19354C70.7364 5.19424 70.7238 5.19518 70.7112 5.19637L70.8045 6.192ZM74.4765 6.216L74.3619 7.20941C74.3754 7.21097 74.389 7.21226 74.4026 7.21327L74.4765 6.216ZM75.8445 6.456L76.1233 5.49565C76.1163 5.49361 76.1092 5.49165 76.1022 5.48976L75.8445 6.456ZM77.6925 8.352L78.6465 8.05217C78.643 8.04111 78.6393 8.03011 78.6355 8.01918L77.6925 8.352ZM77.0205 17.304L76.3134 16.5969L76.3134 16.5969L77.0205 17.304ZM75.9165 17.904L75.6292 16.9462L75.9165 17.904ZM74.4285 18.192L74.4811 19.1906C74.4947 19.1899 74.5083 19.1889 74.5218 19.1876L74.4285 18.192ZM74.9565 16.512L74.5504 15.5982C74.5365 15.6043 74.5228 15.6108 74.5093 15.6176L74.9565 16.512ZM75.5565 15.888L74.6349 15.4999C74.6313 15.5084 74.6278 15.517 74.6245 15.5256L75.5565 15.888ZM75.4845 8.376L74.5987 8.84001C74.6018 8.84601 74.605 8.85198 74.6083 8.85792L75.4845 8.376ZM74.5725 7.728L74.3125 8.69361C74.3268 8.69746 74.3411 8.70098 74.3556 8.70419L74.5725 7.728ZM70.6125 7.728L70.8374 8.70239C70.8461 8.70038 70.8548 8.69824 70.8635 8.696L70.6125 7.728ZM69.7245 8.376L70.6007 8.85792C70.604 8.85198 70.6072 8.84601 70.6103 8.84001L69.7245 8.376ZM69.6285 15.888L68.6902 16.2337C68.6977 16.2541 68.7059 16.2743 68.7147 16.2941L69.6285 15.888ZM70.2525 16.512L70.6997 15.6176C70.6862 15.6108 70.6725 15.6043 70.6586 15.5982L70.2525 16.512ZM71.1405 16.776L71.2452 15.7815L71.2452 15.7815L71.1405 16.776ZM72.6045 17.24C71.5926 17.24 70.8877 17.1996 70.4549 17.132L70.1461 19.108C70.7373 19.2004 71.5684 19.24 72.6045 19.24V17.24ZM70.4245 17.1277C70.0261 17.0779 69.615 16.9583 69.1889 16.7585L68.3401 18.5695C68.938 18.8497 69.5509 19.0341 70.1765 19.1123L70.4245 17.1277ZM69.1783 16.7536C68.8704 16.6137 68.6628 16.4061 68.5229 16.0982L66.7021 16.9258C67.0422 17.6739 67.6026 18.2343 68.3507 18.5744L69.1783 16.7536ZM68.5274 16.1084C68.3654 15.741 68.2525 15.1678 68.2525 14.328H66.2525C66.2525 15.3122 66.3796 16.195 66.6976 16.9156L68.5274 16.1084ZM68.2525 14.328V10.296H66.2525V14.328H68.2525ZM68.2525 10.296C68.2525 9.65468 68.3312 9.13047 68.4679 8.70782L66.5651 8.09218C66.3498 8.75753 66.2525 9.49732 66.2525 10.296H68.2525ZM68.4679 8.70782C68.6139 8.2567 68.7833 7.97948 68.9385 7.81574L67.4865 6.44026C67.0657 6.88452 66.7711 7.4553 66.5651 8.09218L68.4679 8.70782ZM68.9623 7.78962C69.0403 7.7013 69.2131 7.57186 69.5798 7.46183L69.0052 5.54617C68.4119 5.72414 67.8647 6.0107 67.4627 6.46638L68.9623 7.78962ZM69.5995 7.45571C70.027 7.31779 70.4594 7.22874 70.8978 7.18763L70.7112 5.19637C70.1256 5.25126 69.55 5.3702 68.9855 5.55229L69.5995 7.45571ZM70.86 7.19046C71.4161 7.15957 71.9975 7.144 72.6045 7.144V5.144C71.9635 5.144 71.3449 5.16043 70.749 5.19354L70.86 7.19046ZM72.6045 7.144C73.4278 7.144 74.005 7.16823 74.3619 7.20941L74.5911 5.22259C74.116 5.16777 73.4452 5.144 72.6045 5.144V7.144ZM74.4026 7.21327C74.7643 7.24006 75.1584 7.30799 75.5868 7.42223L76.1022 5.48976C75.5706 5.348 75.0527 5.25594 74.5504 5.21873L74.4026 7.21327ZM75.5657 7.41635C75.9413 7.52539 76.1516 7.66582 76.2695 7.79062L77.7235 6.41738C77.2974 5.96618 76.7397 5.67461 76.1233 5.49565L75.5657 7.41635ZM76.2695 7.79062C76.4122 7.94172 76.5845 8.21731 76.7495 8.68482L78.6355 8.01918C78.4165 7.39869 78.1248 6.84228 77.7235 6.41738L76.2695 7.79062ZM76.7385 8.65183C76.8774 9.09382 76.9565 9.63708 76.9565 10.296H78.9565C78.9565 9.48292 78.8596 8.73018 78.6465 8.05217L76.7385 8.65183ZM76.9565 10.296V14.328H78.9565V10.296H76.9565ZM76.9565 14.328C76.9565 15.5631 76.6697 16.2406 76.3134 16.5969L77.7276 18.0111C78.6193 17.1194 78.9565 15.8129 78.9565 14.328H76.9565ZM76.3134 16.5969C76.2107 16.6996 76.0084 16.8324 75.6292 16.9462L76.2038 18.8618C76.7846 18.6876 77.3183 18.4204 77.7276 18.0111L76.3134 16.5969ZM75.6292 16.9462C75.214 17.0707 74.7831 17.1544 74.3352 17.1964L74.5218 19.1876C75.0979 19.1336 75.659 19.0253 76.2038 18.8618L75.6292 16.9462ZM74.3759 17.1934C73.7854 17.2245 73.1949 17.24 72.6045 17.24V19.24C73.2301 19.24 73.8556 19.2235 74.4811 19.1906L74.3759 17.1934ZM72.6045 17.824C73.2803 17.824 73.8132 17.8084 74.1732 17.7705L73.9638 15.7815C73.7158 15.8076 73.2727 15.824 72.6045 15.824V17.824ZM74.1732 17.7705C74.6027 17.7253 75.0142 17.6012 75.4037 17.4064L74.5093 15.6176C74.3228 15.7108 74.1423 15.7627 73.9638 15.7815L74.1732 17.7705ZM75.3626 17.4258C75.8864 17.193 76.2787 16.7899 76.4885 16.2504L74.6245 15.5256C74.6129 15.5553 74.6038 15.5647 74.6017 15.5669C74.5993 15.5694 74.5871 15.5818 74.5504 15.5982L75.3626 17.4258ZM76.4781 16.2761C76.6796 15.7975 76.7485 15.2306 76.7485 14.64H74.7485C74.7485 15.1054 74.6894 15.3705 74.6349 15.4999L76.4781 16.2761ZM76.7485 14.64V9.936H74.7485V14.64H76.7485ZM76.7485 9.936C76.7485 9.18149 76.6644 8.44619 76.3607 7.89408L74.6083 8.85792C74.6566 8.94581 74.7485 9.25051 74.7485 9.936H76.7485ZM76.3703 7.91199C76.0342 7.27037 75.4557 6.89988 74.7894 6.75181L74.3556 8.70419C74.5533 8.74812 74.5828 8.80963 74.5987 8.84001L76.3703 7.91199ZM74.8325 6.76238C74.2821 6.6142 73.5151 6.56 72.6045 6.56V8.56C73.4859 8.56 74.0309 8.6178 74.3125 8.69361L74.8325 6.76238ZM72.6045 6.56C71.6908 6.56 70.9217 6.61476 70.3615 6.76L70.8635 8.696C71.1673 8.61723 71.7262 8.56 72.6045 8.56V6.56ZM70.3876 6.75361C69.7274 6.90598 69.1679 7.28338 68.8387 7.91199L70.6103 8.84001C70.6331 8.79662 70.6656 8.74202 70.8374 8.70239L70.3876 6.75361ZM68.8483 7.89408C68.5446 8.44619 68.4605 9.18149 68.4605 9.936H70.4605C70.4605 9.25051 70.5524 8.94581 70.6007 8.85792L68.8483 7.89408ZM68.4605 9.936V14.64H70.4605V9.936H68.4605ZM68.4605 14.64C68.4605 15.2213 68.5198 15.7713 68.6902 16.2337L70.5668 15.5423C70.5132 15.3967 70.4605 15.1147 70.4605 14.64H68.4605ZM68.7147 16.2941C68.9432 16.8084 69.3321 17.1973 69.8464 17.4258L70.6586 15.5982C70.5969 15.5707 70.5698 15.5436 70.5423 15.4819L68.7147 16.2941ZM69.8053 17.4064C70.1948 17.6012 70.6063 17.7253 71.0358 17.7705L71.2452 15.7815C71.0667 15.7627 70.8862 15.7108 70.6997 15.6176L69.8053 17.4064ZM71.0358 17.7705C71.3958 17.8084 71.9287 17.824 72.6045 17.824V15.824C71.9363 15.824 71.4932 15.8076 71.2452 15.7815L71.0358 17.7705ZM81.3251 6.384V5.384C80.7728 5.384 80.3251 5.83171 80.3251 6.384H81.3251ZM83.4851 6.384H84.4851C84.4851 5.83171 84.0374 5.384 83.4851 5.384V6.384ZM83.4851 7.8H82.4851C82.4851 8.31359 82.8742 8.74368 83.3852 8.79499C83.8962 8.84631 84.363 8.50218 84.4652 7.99885L83.4851 7.8ZM91.0211 7.728L90.1108 8.1418C90.2845 8.52407 90.6786 8.75707 91.0973 8.7251C91.516 8.69312 91.8701 8.40297 91.9838 7.99875L91.0211 7.728ZM92.3171 6.552L91.9705 5.61398L91.9637 5.61653L92.3171 6.552ZM98.0531 6.96L97.3765 7.69633C97.3801 7.69968 97.3838 7.703 97.3875 7.7063L98.0531 6.96ZM98.9411 18V19C99.4934 19 99.9411 18.5523 99.9411 18H98.9411ZM96.7811 18H95.7811C95.7811 18.5523 96.2288 19 96.7811 19V18ZM96.4211 8.304L97.2211 7.704C97.2149 7.69567 97.2085 7.68744 97.202 7.67931L96.4211 8.304ZM92.3891 7.872L92.6491 8.83762L92.6491 8.83762L92.3891 7.872ZM91.5251 8.448L90.6632 7.94098C90.6556 7.95386 90.6483 7.96691 90.6413 7.98011L91.5251 8.448ZM91.3091 18V19C91.8614 19 92.3091 18.5523 92.3091 18H91.3091ZM89.1491 18H88.1491C88.1491 18.5523 88.5968 19 89.1491 19V18ZM88.7891 8.304L89.5891 7.704C89.5829 7.69567 89.5765 7.68744 89.57 7.6793L88.7891 8.304ZM83.7491 8.448L84.5732 9.01453C84.5785 9.00684 84.5836 8.99908 84.5887 8.99125L83.7491 8.448ZM83.4851 18V19C84.0374 19 84.4851 18.5523 84.4851 18H83.4851ZM81.3251 18H80.3251C80.3251 18.5523 80.7728 19 81.3251 19V18ZM81.3251 7.384H83.4851V5.384H81.3251V7.384ZM82.4851 6.384V7.8H84.4851V6.384H82.4851ZM84.4652 7.99885C84.4946 7.85361 84.5848 7.6635 85.0209 7.47889C85.4932 7.27899 86.2599 7.144 87.3971 7.144V5.144C86.1504 5.144 85.0731 5.28501 84.2413 5.63711C83.3734 6.0045 82.6996 6.64239 82.5051 7.60115L84.4652 7.99885ZM87.3971 7.144C89.2251 7.144 89.8846 7.64419 90.1108 8.1418L91.9315 7.3142C91.1977 5.69981 89.4411 5.144 87.3971 5.144V7.144ZM91.9838 7.99875C92.008 7.9126 92.1075 7.70016 92.6705 7.48747L91.9637 5.61653C91.0867 5.94784 90.3222 6.5194 90.0585 7.45725L91.9838 7.99875ZM92.6638 7.48999C93.2578 7.27047 94.0291 7.144 95.0051 7.144V5.144C93.8692 5.144 92.8485 5.28953 91.9705 5.614L92.6638 7.48999ZM95.0051 7.144C96.3738 7.144 97.0684 7.41318 97.3765 7.69633L98.7298 6.22367C97.8539 5.41882 96.5164 5.144 95.0051 5.144V7.144ZM97.3875 7.7063C97.6852 7.97184 97.9411 8.48166 97.9411 9.48H99.9411C99.9411 8.17434 99.605 7.00415 98.7187 6.2137L97.3875 7.7063ZM97.9411 9.48V18H99.9411V9.48H97.9411ZM98.9411 17H96.7811V19H98.9411V17ZM97.7811 18V9.624H95.7811V18H97.7811ZM97.7811 9.624C97.7811 9.27688 97.7547 8.9391 97.6793 8.63746L95.739 9.12254C95.7596 9.2049 95.7811 9.36312 95.7811 9.624H97.7811ZM97.6793 8.63746C97.5928 8.29178 97.4285 7.98049 97.2211 7.704L95.6211 8.904C95.7018 9.01151 95.7294 9.08422 95.739 9.12254L97.6793 8.63746ZM97.202 7.67931C96.865 7.25807 96.3891 7.02373 95.9176 6.89126C95.4417 6.75761 94.8883 6.704 94.2851 6.704V8.704C94.786 8.704 95.1405 8.75039 95.3767 8.81674C95.6171 8.88427 95.6572 8.94993 95.6403 8.92869L97.202 7.67931ZM94.2851 6.704C93.4168 6.704 92.6768 6.75895 92.1292 6.90638L92.6491 8.83762C92.9335 8.76105 93.4575 8.704 94.2851 8.704V6.704ZM92.1292 6.90638C91.5545 7.06109 90.9985 7.37099 90.6632 7.94098L92.3871 8.95502C92.3833 8.96138 92.3851 8.95252 92.4158 8.93205C92.4505 8.90894 92.5214 8.87201 92.6491 8.83762L92.1292 6.90638ZM90.6413 7.98011C90.3863 8.46192 90.3091 9.0443 90.3091 9.624H92.3091C92.3091 9.1797 92.376 8.97808 92.4089 8.91589L90.6413 7.98011ZM90.3091 9.624V18H92.3091V9.624H90.3091ZM91.3091 17H89.1491V19H91.3091V17ZM90.1491 18V9.624H88.1491V18H90.1491ZM90.1491 9.624C90.1491 9.27688 90.1227 8.9391 90.0473 8.63746L88.107 9.12253C88.1276 9.20489 88.1491 9.36312 88.1491 9.624H90.1491ZM90.0473 8.63746C89.9608 8.29178 89.7965 7.98049 89.5891 7.704L87.9891 8.904C88.0698 9.01151 88.0974 9.08422 88.107 9.12253L90.0473 8.63746ZM89.57 7.6793C89.235 7.26062 88.7639 7.02546 88.2944 6.89206C87.8217 6.75777 87.2733 6.704 86.6771 6.704V8.704C87.169 8.704 87.5166 8.75023 87.7478 8.81593C87.9823 8.88254 88.0232 8.94738 88.0083 8.92869L89.57 7.6793ZM86.6771 6.704C85.7749 6.704 85.0121 6.75948 84.4426 6.90186L84.9277 8.84214C85.2542 8.76052 85.8194 8.704 86.6771 8.704V6.704ZM84.4426 6.90186C83.8531 7.04924 83.2723 7.34413 82.9096 7.90475L84.5887 8.99125C84.5779 9.00787 84.6212 8.91876 84.9277 8.84214L84.4426 6.90186ZM82.9251 7.88147C82.5792 8.38453 82.4851 9.02021 82.4851 9.624H84.4851C84.4851 9.41212 84.5031 9.25878 84.5268 9.15304C84.5507 9.04669 84.5752 9.01158 84.5732 9.01453L82.9251 7.88147ZM82.4851 9.624V18H84.4851V9.624H82.4851ZM83.4851 17H81.3251V19H83.4851V17ZM82.3251 18V6.384H80.3251V18H82.3251ZM102.677 6.384V5.384C102.124 5.384 101.677 5.83171 101.677 6.384H102.677ZM104.813 6.384H105.813C105.813 5.83171 105.365 5.384 104.813 5.384V6.384ZM104.813 7.632H103.813C103.813 8.18428 104.26 8.632 104.813 8.632V7.632ZM104.837 7.632V8.632C105.322 8.632 105.737 8.28413 105.821 7.80669L104.837 7.632ZM112.133 7.08L111.494 7.84962L111.504 7.85763L112.133 7.08ZM112.949 16.008L112.022 15.6316C112.019 15.64 112.016 15.6484 112.012 15.6569L112.949 16.008ZM112.181 17.208L111.512 16.4647C111.506 16.4701 111.5 16.4755 111.494 16.481L112.181 17.208ZM110.981 17.856L110.682 16.9015L110.674 16.9043L110.981 17.856ZM109.493 18.168L109.396 17.1726L109.386 17.1737L109.493 18.168ZM105.917 18L105.624 18.9564C105.635 18.9595 105.645 18.9625 105.656 18.9654L105.917 18ZM104.837 17.256L105.749 16.8456C105.555 16.4157 105.088 16.1793 104.627 16.2783C104.166 16.3772 103.837 16.7846 103.837 17.256H104.837ZM104.837 22.992V23.992C105.389 23.992 105.837 23.5443 105.837 22.992H104.837ZM102.677 22.992H101.677C101.677 23.5443 102.124 23.992 102.677 23.992V22.992ZM109.805 16.608L110.056 17.576C110.064 17.5739 110.072 17.5718 110.079 17.5695L109.805 16.608ZM109.805 7.896L109.521 8.8548C109.534 8.85888 109.548 8.86266 109.562 8.86614L109.805 7.896ZM105.989 7.896L106.249 8.86161C106.26 8.85854 106.271 8.85526 106.283 8.85178L105.989 7.896ZM105.101 8.592L105.987 9.05601C105.989 9.05044 105.992 9.04484 105.995 9.03921L105.101 8.592ZM105.101 15.936L104.224 16.4179C104.231 16.4289 104.237 16.4398 104.243 16.4505L105.101 15.936ZM106.037 16.608L105.753 17.5668C105.764 17.5701 105.775 17.5731 105.786 17.576L106.037 16.608ZM102.677 7.384H104.813V5.384H102.677V7.384ZM103.813 6.384V7.632H105.813V6.384H103.813ZM104.813 8.632H104.837V6.632H104.813V8.632ZM105.821 7.80669C105.824 7.78932 105.834 7.63109 106.31 7.4521C106.804 7.26668 107.609 7.144 108.797 7.144V5.144C107.521 5.144 106.434 5.26932 105.607 5.5799C104.763 5.89691 104.025 6.48268 103.852 7.45731L105.821 7.80669ZM108.797 7.144C110.149 7.144 110.993 7.43367 111.494 7.84956L112.771 6.31044C111.768 5.47833 110.388 5.144 108.797 5.144V7.144ZM111.504 7.85763C112.023 8.2774 112.261 8.77654 112.261 9.432H114.261C114.261 8.16745 113.746 7.0986 112.761 6.30237L111.504 7.85763ZM112.261 9.432V14.208H114.261V9.432H112.261ZM112.261 14.208C112.261 14.7975 112.171 15.2645 112.022 15.6316L113.875 16.3844C114.142 15.7275 114.261 14.9945 114.261 14.208H112.261ZM112.012 15.6569C111.862 16.0582 111.685 16.3092 111.512 16.4647L112.85 17.9513C113.317 17.5308 113.651 16.9818 113.885 16.3591L112.012 15.6569ZM111.494 16.481C111.348 16.6185 111.098 16.7716 110.682 16.9015L111.279 18.8105C111.887 18.6204 112.437 18.3415 112.867 17.935L111.494 16.481ZM110.674 16.9043C110.243 17.0432 109.818 17.1319 109.396 17.1726L109.589 19.1634C110.16 19.1081 110.726 18.9888 111.288 18.8077L110.674 16.9043ZM109.386 17.1737C108.985 17.2167 108.479 17.24 107.861 17.24V19.24C108.523 19.24 109.105 19.2153 109.599 19.1623L109.386 17.1737ZM107.861 17.24C107.232 17.24 106.673 17.1685 106.178 17.0346L105.656 18.9654C106.344 19.1515 107.081 19.24 107.861 19.24V17.24ZM106.209 17.0436C105.985 16.9751 105.853 16.9071 105.782 16.8585C105.716 16.8128 105.729 16.8026 105.749 16.8456L103.925 17.6664C104.249 18.3868 104.961 18.7536 105.624 18.9564L106.209 17.0436ZM103.837 17.256V22.992H105.837V17.256H103.837ZM104.837 21.992H102.677V23.992H104.837V21.992ZM103.677 22.992V6.384H101.677V22.992H103.677ZM107.909 17.776C108.766 17.776 109.499 17.7203 110.056 17.576L109.554 15.64C109.246 15.7197 108.715 15.776 107.909 15.776V17.776ZM110.079 17.5695C110.708 17.3899 111.269 17.0387 111.622 16.4505L109.907 15.4215C109.876 15.4733 109.797 15.5701 109.53 15.6465L110.079 17.5695ZM111.622 16.4505C111.954 15.8974 112.053 15.1898 112.053 14.472H110.053C110.053 15.0662 109.959 15.3346 109.907 15.4215L111.622 16.4505ZM112.053 14.472V10.2H110.053V14.472H112.053ZM112.053 10.2C112.053 9.42644 111.956 8.68705 111.643 8.11315L109.887 9.07085C109.958 9.20095 110.053 9.53356 110.053 10.2H112.053ZM111.643 8.11315C111.296 7.47769 110.721 7.09434 110.047 6.92586L109.562 8.86614C109.784 8.92165 109.849 9.00231 109.887 9.07085L111.643 8.11315ZM110.089 6.9372C109.516 6.7675 108.76 6.704 107.885 6.704V8.704C108.705 8.704 109.229 8.7685 109.521 8.8548L110.089 6.9372ZM107.885 6.704C107.013 6.704 106.258 6.76683 105.695 6.94022L106.283 8.85178C106.551 8.76917 107.061 8.704 107.885 8.704V6.704ZM105.729 6.93038C105.066 7.10876 104.523 7.51137 104.206 8.14479L105.995 9.03921C106.03 8.96863 106.079 8.90724 106.249 8.86161L105.729 6.93038ZM104.215 8.12799C103.922 8.68735 103.837 9.42729 103.837 10.2H105.837C105.837 9.50071 105.928 9.16865 105.987 9.05601L104.215 8.12799ZM103.837 10.2V14.472H105.837V10.2H103.837ZM103.837 14.472C103.837 15.1818 103.926 15.8748 104.224 16.4179L105.977 15.4541C105.924 15.3572 105.837 15.0742 105.837 14.472H103.837ZM104.243 16.4505C104.59 17.0279 105.133 17.3832 105.753 17.5668L106.321 15.6492C106.076 15.5768 105.996 15.4841 105.958 15.4215L104.243 16.4505ZM105.786 17.576C106.341 17.72 107.066 17.776 107.909 17.776V15.776C107.12 15.776 106.596 15.72 106.288 15.64L105.786 17.576ZM117.583 17.928L117.252 18.8715L117.259 18.8742L117.583 17.928ZM116.287 16.824L115.387 17.2603C115.391 17.2675 115.394 17.2748 115.398 17.282L116.287 16.824ZM116.263 12.504L115.374 12.0453L115.369 12.0568L116.263 12.504ZM117.535 11.448L117.211 10.5018L117.204 10.5045L117.535 11.448ZM123.583 11.136V12.136C124.135 12.136 124.583 11.6883 124.583 11.136H123.583ZM123.319 8.304L122.487 8.8587C122.501 8.88033 122.517 8.90138 122.533 8.92182L123.319 8.304ZM122.479 7.8L122.237 8.77019L122.246 8.77239L122.479 7.8ZM116.791 7.944H115.791C115.791 8.23201 115.915 8.50603 116.132 8.69591C116.348 8.88578 116.636 8.97307 116.922 8.93542L116.791 7.944ZM116.791 6.36L116.701 5.36411C116.186 5.41093 115.791 5.8428 115.791 6.36H116.791ZM124.063 6.456L123.754 7.40703C123.761 7.40938 123.769 7.41164 123.776 7.41383L124.063 6.456ZM125.383 7.488L126.283 7.05244L126.283 7.05244L125.383 7.488ZM125.743 18V19C126.295 19 126.743 18.5523 126.743 18H125.743ZM123.655 18H122.655C122.655 18.5523 123.103 19 123.655 19V18ZM123.655 16.896H124.655C124.655 16.3812 124.264 15.9505 123.752 15.9007C123.24 15.8509 122.773 16.1981 122.674 16.7033L123.655 16.896ZM122.503 16.656L122.307 15.6754L122.301 15.6765L122.503 16.656ZM123.583 12.48H124.583C124.583 11.9277 124.135 11.48 123.583 11.48V12.48ZM118.759 12.648L119.06 13.6016C119.075 13.5969 119.09 13.5918 119.105 13.5863L118.759 12.648ZM118.159 13.224L117.21 12.9078L117.21 12.9078L118.159 13.224ZM118.183 15.96L117.239 16.2904C117.241 16.2955 117.243 16.3006 117.245 16.3057L118.183 15.96ZM118.783 16.632L118.336 17.5264C118.349 17.5332 118.363 17.5397 118.377 17.5458L118.783 16.632ZM120.151 17.24C119.09 17.24 118.362 17.1375 117.907 16.9818L117.259 18.8742C118.02 19.1345 119.004 19.24 120.151 19.24V17.24ZM117.915 16.9845C117.549 16.856 117.324 16.6532 117.176 16.366L115.398 17.282C115.794 18.0508 116.434 18.584 117.252 18.8715L117.915 16.9845ZM117.187 16.3877C117.027 16.0589 116.903 15.4757 116.903 14.544H114.903C114.903 15.5963 115.035 16.5331 115.387 17.2603L117.187 16.3877ZM116.903 14.544C116.903 13.7315 117.018 13.2308 117.158 12.9512L115.369 12.0568C115.029 12.7372 114.903 13.5965 114.903 14.544H116.903ZM117.152 12.9626C117.276 12.7222 117.483 12.5262 117.867 12.3915L117.204 10.5045C116.403 10.7858 115.762 11.2938 115.375 12.0454L117.152 12.9626ZM117.859 12.3942C118.314 12.2385 119.042 12.136 120.103 12.136V10.136C118.956 10.136 117.972 10.2415 117.211 10.5018L117.859 12.3942ZM120.103 12.136H123.583V10.136H120.103V12.136ZM124.583 11.136V9.288H122.583V11.136H124.583ZM124.583 9.288C124.583 8.74207 124.475 8.15686 124.105 7.68618L122.533 8.92182C122.515 8.89914 122.583 8.96993 122.583 9.288H124.583ZM124.151 7.7493C123.802 7.22493 123.254 6.95745 122.712 6.82761L122.246 8.77239C122.505 8.83455 122.517 8.90307 122.487 8.8587L124.151 7.7493ZM122.722 6.82986C122.216 6.70352 121.55 6.656 120.775 6.656V8.656C121.505 8.656 121.974 8.70448 122.237 8.77014L122.722 6.82986ZM120.775 6.656C119.523 6.656 118.151 6.75608 116.66 6.95258L116.922 8.93542C118.344 8.74792 119.627 8.656 120.775 8.656V6.656ZM117.791 7.944V6.36H115.791V7.944H117.791ZM116.882 7.35589C118.442 7.214 119.844 7.144 121.087 7.144V5.144C119.771 5.144 118.308 5.21799 116.701 5.36411L116.882 7.35589ZM121.087 7.144C122.409 7.144 123.27 7.24979 123.754 7.40703L124.372 5.50496C123.576 5.24621 122.453 5.144 121.087 5.144V7.144ZM123.776 7.41383C124.209 7.54382 124.391 7.73254 124.483 7.92356L126.283 7.05244C125.896 6.25146 125.197 5.75218 124.35 5.49817L123.776 7.41383ZM124.483 7.92356C124.622 8.21051 124.743 8.79197 124.743 9.792H126.743C126.743 8.71203 126.624 7.75749 126.283 7.05244L124.483 7.92356ZM124.743 9.792V18H126.743V9.792H124.743ZM125.743 17H123.655V19H125.743V17ZM124.655 18V16.896H122.655V18H124.655ZM122.674 16.7033C122.67 16.7241 122.664 16.7433 122.63 16.7769C122.587 16.8197 122.49 16.8934 122.289 16.9703C121.873 17.1297 121.184 17.24 120.151 17.24V19.24C121.278 19.24 122.253 19.1263 123.005 18.8377C123.779 18.541 124.459 17.9931 124.636 17.0887L122.674 16.7033ZM120.511 17.824C121.338 17.824 122.074 17.7654 122.705 17.6355L122.301 15.6765C121.845 15.7706 121.253 15.824 120.511 15.824V17.824ZM122.699 17.6366C123.158 17.5449 123.629 17.3694 123.995 17.0271C124.394 16.6552 124.583 16.1668 124.583 15.648H122.583C122.583 15.6648 122.581 15.6519 122.593 15.6234C122.605 15.5933 122.622 15.5728 122.631 15.5649C122.636 15.5597 122.623 15.5746 122.569 15.5982C122.516 15.6221 122.431 15.6505 122.307 15.6754L122.699 17.6366ZM124.583 15.648V12.48H122.583V15.648H124.583ZM123.583 11.48H120.247V13.48H123.583V11.48ZM120.247 11.48C119.543 11.48 118.895 11.5323 118.413 11.7097L119.105 13.5863C119.231 13.5397 119.575 13.48 120.247 13.48V11.48ZM118.458 11.6944C117.867 11.8812 117.414 12.2984 117.21 12.9078L119.108 13.5402C119.109 13.5358 119.108 13.5405 119.102 13.5509C119.095 13.5616 119.086 13.5739 119.074 13.5854C119.062 13.5968 119.052 13.6034 119.047 13.6062C119.042 13.6088 119.046 13.6062 119.06 13.6016L118.458 11.6944ZM117.21 12.9078C117.06 13.3586 117.015 13.9604 117.015 14.616H119.015C119.015 13.9916 119.066 13.6654 119.108 13.5402L117.21 12.9078ZM117.015 14.616C117.015 15.2373 117.073 15.8153 117.239 16.2904L119.127 15.6296C119.069 15.4647 119.015 15.1467 119.015 14.616H117.015ZM117.245 16.3057C117.444 16.8468 117.819 17.2679 118.336 17.5264L119.23 15.7376C119.171 15.7081 119.146 15.6812 119.121 15.6143L117.245 16.3057ZM118.377 17.5458C118.859 17.7599 119.46 17.824 120.079 17.824V15.824C119.546 15.824 119.283 15.7601 119.189 15.7182L118.377 17.5458ZM120.079 17.824H120.511V15.824H120.079V17.824ZM129.489 6.384V5.384C128.937 5.384 128.489 5.83171 128.489 6.384H129.489ZM131.649 6.384H132.649C132.649 5.83171 132.201 5.384 131.649 5.384V6.384ZM131.649 7.8H130.649C130.649 8.31359 131.038 8.74368 131.549 8.79499C132.06 8.84631 132.527 8.50218 132.629 7.99885L131.649 7.8ZM138.585 6.96L137.909 7.69633C137.915 7.70266 137.922 7.7089 137.93 7.71503L138.585 6.96ZM139.497 18V19C140.049 19 140.497 18.5523 140.497 18H139.497ZM137.337 18H136.337C136.337 18.5523 136.785 19 137.337 19V18ZM137.265 8.856L136.295 9.09853L136.295 9.09854L137.265 8.856ZM136.977 8.28L137.777 7.68C137.771 7.67167 137.765 7.66344 137.758 7.6553L136.977 8.28ZM132.873 7.872L133.116 8.84214C133.124 8.84019 133.131 8.83814 133.139 8.83599L132.873 7.872ZM131.913 8.448L131.096 7.87132C131.088 7.88231 131.081 7.89345 131.074 7.90475L131.913 8.448ZM131.649 18V19C132.201 19 132.649 18.5523 132.649 18H131.649ZM129.489 18H128.489C128.489 18.5523 128.937 19 129.489 19V18ZM129.489 7.384H131.649V5.384H129.489V7.384ZM130.649 6.384V7.8H132.649V6.384H130.649ZM132.629 7.99885C132.661 7.84233 132.755 7.65521 133.169 7.47534C133.623 7.27861 134.362 7.144 135.465 7.144V5.144C134.248 5.144 133.192 5.28539 132.373 5.64065C131.516 6.01279 130.861 6.65367 130.669 7.60115L132.629 7.99885ZM135.465 7.144C136.892 7.144 137.605 7.41711 137.909 7.69633L139.262 6.22367C138.382 5.41488 137.014 5.144 135.465 5.144V7.144ZM137.93 7.71503C138.238 7.98257 138.497 8.48923 138.497 9.48H140.497C140.497 8.16677 140.149 6.99343 139.241 6.20497L137.93 7.71503ZM138.497 9.48V18H140.497V9.48H138.497ZM139.497 17H137.337V19H139.497V17ZM138.337 18V9.6H136.337V18H138.337ZM138.337 9.6C138.337 9.25288 138.311 8.9151 138.235 8.61346L136.295 9.09854C136.316 9.1809 136.337 9.33912 136.337 9.6H138.337ZM138.235 8.61346C138.149 8.26778 137.985 7.95649 137.777 7.68L136.177 8.88C136.258 8.98751 136.285 9.06022 136.295 9.09853L138.235 8.61346ZM137.758 7.6553C137.421 7.23406 136.945 6.99973 136.474 6.86726C135.998 6.73361 135.444 6.68 134.841 6.68V8.68C135.342 8.68 135.697 8.72639 135.933 8.79274C136.173 8.86027 136.213 8.92593 136.196 8.90469L137.758 7.6553ZM134.841 6.68C133.96 6.68 133.2 6.7446 132.607 6.90801L133.139 8.83599C133.475 8.7434 134.026 8.68 134.841 8.68V6.68ZM132.631 6.90186C132.04 7.04955 131.472 7.33941 131.096 7.87132L132.73 9.02468C132.739 9.01259 132.811 8.91845 133.116 8.84214L132.631 6.90186ZM131.074 7.90475C130.751 8.4032 130.649 9.00622 130.649 9.6H132.649C132.649 9.20178 132.723 9.0368 132.753 8.99125L131.074 7.90475ZM130.649 9.6V18H132.649V9.6H130.649ZM131.649 17H129.489V19H131.649V17ZM130.489 18V6.384H128.489V18H130.489ZM146.007 18.168L146.942 18.5217C147.029 18.293 147.029 18.0406 146.942 17.8121L146.007 18.168ZM141.519 6.384V5.384C141.19 5.384 140.882 5.54571 140.696 5.81651C140.509 6.08731 140.467 6.43257 140.584 6.73992L141.519 6.384ZM143.871 6.384L144.817 6.06059C144.679 5.65593 144.299 5.384 143.871 5.384V6.384ZM147.111 15.864L146.165 16.1874C146.303 16.5921 146.683 16.864 147.111 16.864V15.864ZM147.159 15.864V16.864C147.598 16.864 147.985 16.5782 148.114 16.1591L147.159 15.864ZM150.087 6.384V5.384C149.648 5.384 149.261 5.66982 149.132 6.08889L150.087 6.384ZM152.271 6.384L153.215 6.71532C153.322 6.40938 153.274 6.07033 153.087 5.80578C152.899 5.54122 152.595 5.384 152.271 5.384V6.384ZM146.439 22.992V23.992C146.864 23.992 147.242 23.7239 147.383 23.3233L146.439 22.992ZM144.183 22.992L143.248 22.6383C143.131 22.9456 143.174 23.2903 143.36 23.5605C143.547 23.8307 143.855 23.992 144.183 23.992V22.992ZM146.942 17.8121L142.454 6.02808L140.584 6.73992L145.072 18.5239L146.942 17.8121ZM141.519 7.384H143.871V5.384H141.519V7.384ZM142.925 6.7074L146.165 16.1874L148.057 15.5406L144.817 6.06059L142.925 6.7074ZM147.111 16.864H147.159V14.864H147.111V16.864ZM148.114 16.1591L151.042 6.6791L149.132 6.08889L146.204 15.5689L148.114 16.1591ZM150.087 7.384H152.271V5.384H150.087V7.384ZM151.327 6.05268L145.495 22.6607L147.383 23.3233L153.215 6.71532L151.327 6.05268ZM146.439 21.992H144.183V23.992H146.439V21.992ZM145.118 23.3457L146.942 18.5217L145.072 17.8143L143.248 22.6383L145.118 23.3457Z" fill="#8B91DB"/>
</svg>
